HIERARCHY
ROOT Hips
{
 OFFSET 0.000000 0.000000 0.000000
 CHANNELS 6 Xposition Yposition Zposition Yrotation Xrotation Zrotation
 JOINT Chest
 {
  OFFSET 0.000000 9.585900 0.002600
  CHANNELS 3 Yrotation Xrotation Zrotation
  JOINT Chest2
  {
   OFFSET 0.000000 9.601200 -0.005300
   CHANNELS 3 Yrotation Xrotation Zrotation
   JOINT Chest3
   {
    OFFSET 0.000000 9.561800 0.000000
    CHANNELS 3 Yrotation Xrotation Zrotation
    JOINT Chest4
    {
     OFFSET 0.000000 9.552100 0.000000
     CHANNELS 3 Yrotation Xrotation Zrotation
     JOINT Neck
     {
      OFFSET 0.000000 14.453000 0.000000
      CHANNELS 3 Yrotation Xrotation Zrotation
      JOINT Head
      {
       OFFSET 0.000000 8.936500 -0.011300
       CHANNELS 3 Yrotation Xrotation Zrotation
       End Site
       {
        OFFSET 0.000000 17.073600 -0.006000
       }
      }
     }
     JOINT RightCollar
     {
      OFFSET -2.921100 9.558500 0.000000
      CHANNELS 3 Yrotation Xrotation Zrotation
      JOINT RightShoulder
      {
       OFFSET -13.519700 0.000000 0.000000
       CHANNELS 3 Yrotation Xrotation Zrotation
       JOINT RightElbow
       {
        OFFSET 0.000000 -29.696600 0.000000
        CHANNELS 3 Yrotation Xrotation Zrotation
        JOINT RightWrist
        {
         OFFSET 0.000000 -24.004700 0.000000
         CHANNELS 3 Yrotation Xrotation Zrotation
         End Site
         {
          OFFSET 0.000000 -17.728500 0.000000
         }
        }
       }
      }
     }
     JOINT LeftCollar
     {
      OFFSET 2.921100 9.558500 0.000000
      CHANNELS 3 Yrotation Xrotation Zrotation
      JOINT LeftShoulder
      {
       OFFSET 13.519700 0.000000 0.000000
       CHANNELS 3 Yrotation Xrotation Zrotation
       JOINT LeftElbow
       {
        OFFSET 0.000000 -29.696600 0.000000
        CHANNELS 3 Yrotation Xrotation Zrotation
        JOINT LeftWrist
        {
         OFFSET 0.000000 -24.004700 0.000000
         CHANNELS 3 Yrotation Xrotation Zrotation
         End Site
         {
          OFFSET 0.000000 -17.728500 0.000000
         }
        }
       }
      }
     }
    }
   }
  }
 }
 JOINT RightHip
 {
  OFFSET -7.771700 -0.012900 -0.001300
  CHANNELS 3 Yrotation Xrotation Zrotation
  JOINT RightKnee
  {
   OFFSET 0.000000 -40.869800 0.001200
   CHANNELS 3 Yrotation Xrotation Zrotation
   JOINT RightAnkle
   {
    OFFSET 0.000000 -39.717900 0.002100
    CHANNELS 3 Yrotation Xrotation Zrotation
    JOINT RightToe
    {
     OFFSET 0.000000 -4.965400 11.033500
     CHANNELS 3 Yrotation Xrotation Zrotation
     End Site
     {
      OFFSET 0.000000 -1.423100 5.872300
     }
    }
   }
  }
 }
 JOINT LeftHip
 {
  OFFSET 7.771700 -0.012900 -0.001300
  CHANNELS 3 Yrotation Xrotation Zrotation
  JOINT LeftKnee
  {
   OFFSET 0.000000 -40.869800 0.001200
   CHANNELS 3 Yrotation Xrotation Zrotation
   JOINT LeftAnkle
   {
    OFFSET 0.000000 -39.717900 0.002100
    CHANNELS 3 Yrotation Xrotation Zrotation
    JOINT LeftToe
    {
     OFFSET 0.000000 -4.965400 11.033500
     CHANNELS 3 Yrotation Xrotation Zrotation
     End Site
     {
      OFFSET 0.000000 -1.423100 5.872300
     }
    }
   }
  }
 }
}
MOTION
Frames: 5
Frame Time: 0.008333
0.000000 85.388000 0.000000 0.000000 -5.767877 0.000000 0.000000 11.653817 0.000000 0.000000 -5.885947 0.000000 0.000000 -0.000000 0.000000 0.000000 -0.000000 0.000000 0.000000 12.528835 0.000000 0.000000 0.711642 0.000000 0.000000 -0.000000 0.000000 0.000000 0.000000 -90.000000 0.000000 -2.309062 0.000000 0.000000 2.309062 0.000000 0.000000 -0.000000 0.000000 0.000000 -0.000000 90.000000 0.000000 -2.309062 0.000000 0.000000 2.309062 0.000000 0.000000 8.520406 0.000000 0.000000 1.905762 0.000000 -0.000000 -4.658285 0.000000 0.000000 -0.000000 0.000000 0.000000 8.520406 0.000000 0.000000 1.905762 0.000000 -0.000000 -4.658285 0.000000 0.000000 -0.000000 0.000000
-47.427537 50.367526 2.360089 162.221176 -10.183977 0.195792 2.171283 4.902970 1.603341 0.066369 0.164878 0.025367 0.117433 0.291778 0.045098 1.964917 4.832503 0.835402 -0.056745 21.662476 0.512418 -0.297079 4.374930 1.095247 0.572468 5.830227 -0.228061 -6.619867 -10.583025 -5.874489 -29.976183 -70.469509 56.007714 0.872508 6.480276 -20.213809 -3.914543 2.614041 1.691769 25.044908 -2.590902 1.779025 46.229920 -86.227758 -68.495199 -3.454749 11.657432 7.156922 2.083790 -71.027177 -3.216704 -108.467909 80.004634 -108.414924 -1.697210 -13.275107 1.544324 -0.640791 0.872942 -0.228815 -7.894051 -73.937604 24.937509 107.707108 78.529256 104.689782 -16.809950 -20.203993 -0.424668 -0.048539 -1.115879 -0.058749
-47.424025 50.364544 2.357424 162.198815 -10.202316 0.198826 2.149742 4.903519 1.603626 0.066231 0.165048 0.025635 0.117401 0.292235 0.045642 1.985413 4.843553 0.838037 -0.084789 21.621837 0.597487 -0.275441 4.376538 1.113533 0.531920 5.843404 -0.222003 -6.706769 -10.473368 -5.847051 -29.985605 -70.515421 55.982738 0.877107 6.513135 -20.210327 -3.926996 2.631789 1.686328 24.985436 -2.524912 1.637061 45.319021 -86.217536 -67.521806 -3.376050 11.637740 7.391811 2.088259 -71.013932 -3.211051 -108.530914 80.011480 -108.473619 -1.693077 -13.276404 1.536601 -0.640961 0.873398 -0.251430 -7.895391 -73.917090 24.972556 107.736966 78.533710 104.712607 -16.818154 -20.175155 -0.420997 -0.048715 -1.129698 -0.058014
-47.419779 50.361333 2.354641 162.181038 -10.223493 0.202371 2.133370 4.907566 1.605496 0.065984 0.164974 0.025829 0.117028 0.291957 0.045945 1.980419 4.842491 0.842212 -0.082553 21.606322 0.647347 -0.265069 4.363216 1.162819 0.509170 5.869287 -0.221949 -6.786460 -10.361552 -5.812833 -29.996702 -70.546109 55.956913 0.877299 6.531914 -20.215894 -3.922100 2.663072 1.669202 24.921589 -2.462268 1.483330 44.457730 -86.213196 -66.590734 -3.306952 11.620033 7.597946 2.086685 -70.997936 -3.210006 -108.616498 80.023965 -108.550062 -1.691045 -13.279681 1.522650 -0.638035 0.871318 -0.257812 -7.882563 -73.894653 24.987407 107.730324 78.508606 104.697294 -16.822655 -20.144659 -0.415699 -0.058558 -1.103613 -0.053010
-47.411222 50.358323 2.351996 162.148137 -10.253180 0.189619 2.128764 4.916897 1.626347 0.031070 0.149875 0.029971 0.151997 0.307768 0.042119 1.936763 4.833508 0.854607 -0.024353 21.622889 0.646217 -0.267249 4.323901 1.249653 0.528975 5.907776 -0.234665 -6.861076 -10.252298 -5.772958 -30.007121 -70.565222 55.931708 0.868909 6.540414 -20.231459 -3.875560 2.705159 1.629987 24.856497 -2.404268 1.325045 43.681098 -86.210904 -65.742988 -3.249056 11.599877 7.776343 2.040425 -70.972879 -3.156608 -108.710007 80.035300 -108.596970 -1.725708 -13.285439 1.464070 -0.583097 0.869752 -0.242846 -7.917008 -73.861853 25.073743 107.762314 78.519857 104.725141 -16.818579 -20.100240 -0.405104 -0.073950 -1.113872 -0.060270
